<?xml version="1.0" encoding="UTF-8"?>
<svg width="515px" height="518px" viewBox="0 0 515 518" version="1.1" xmlns="http://www.w3.org/2000/svg" xmlns:xlink="http://www.w3.org/1999/xlink">
    <!-- Generator: Sketch 43.2 (39069) - http://www.bohemiancoding.com/sketch -->
    <title>molecule</title>
    <desc>Created with Sketch.</desc>
    <defs></defs>
    <g id="Page-1" stroke="none" stroke-width="1" fill="none" fill-rule="evenodd">
        <g id="molecule">
            <path d="M276.6,163.1 C277.1,163 278,162.6 278,161.9 C278,161.1 277.8,160.3 276,159.8 C269.8,159.8 264.7,164.9 264.7,171.1 C264.7,174.4 266.1,177.3 268.3,179.4 C267.8,178.1 267.5,176.7 267.5,175.2 C267.5,169.9 270.3,164.5 276.6,163.1 Z M287.8,120.2 C288.2,120.1 289,119.8 289,119.1 C289,118.4 288.9,117.7 287.3,117.3 C282,117.3 277.6,121.6 277.6,127 C277.6,129.8 278.8,132.3 280.7,134.1 C280.3,133 280,131.8 280,130.6 C280,126.1 282.4,121.4 287.8,120.2 L287.8,120.2 Z" id="Shape" fill="#81AF32" fill-rule="nonzero"></path>
            <path d="M363.3,322.3 C352.7,306.3 328.8,269.7 321.6,258.6 L321.6,256.3 C321.6,246.4 321.5,219.9 321.5,216.3 C321.5,214.9 321.5,211.1 321.9,209 C330,208.3 334.3,202.5 334.3,196.9 C334.3,191 329.3,184.7 320,184.7 L295.3,184.7 C298.1,180.8 299.7,176.1 299.7,171 C299.7,170.3 299.7,169.6 299.6,168.9 C302.4,171.1 305.9,172.5 309.7,172.5 C318.5,172.5 325.7,165.3 325.7,156.5 C325.7,147.7 318.5,140.5 309.7,140.5 C308.3,140.5 306.9,140.7 305.7,141 C308.4,137.4 310.1,132.9 310.1,128 C310.1,116.2 300.5,106.6 288.7,106.6 C276.9,106.6 267.3,116.2 267.3,128 C267.3,136.9 272.8,144.6 280.5,147.8 C279.1,147.5 277.6,147.4 276.1,147.4 C263.1,147.4 252.4,158 252.4,171.1 C252.4,176.2 254,180.9 256.8,184.8 C253.1,184.8 249.8,185.9 247.2,187.9 C244.3,190.2 242.6,193.5 242.6,197.1 C242.6,202.6 246.9,208.5 255,209.2 C255.4,211.3 255.4,215.1 255.4,216.5 C255.4,219 255.4,233 255.3,257.9 L255.3,258.7 C250.1,266.8 224.6,306 213.7,322.4 C205.7,334.4 199.7,351.7 206.5,364.5 C209.6,370.2 216.3,377 231.1,377 L345.9,377 C360.7,377 367.5,370.2 370.5,364.5 C377.3,351.6 371.2,334.2 363.3,322.3 L363.3,322.3 Z M309.6,148.1 C314.2,148.1 318,151.9 318,156.5 C318,161.1 314.2,164.9 309.6,164.9 C305,164.9 301.2,161.1 301.2,156.5 C301.2,151.9 305,148.1 309.6,148.1 Z M274.8,128 C274.8,120.4 281,114.2 288.6,114.2 C296.2,114.2 302.4,120.4 302.4,128 C302.4,135.6 296.2,141.8 288.6,141.8 C280.9,141.8 274.8,135.6 274.8,128 Z M276,155.1 C284.8,155.1 292,162.3 292,171.1 C292,179.9 284.8,187.1 276,187.1 C267.2,187.1 260,179.9 260,171.1 C259.9,162.2 267.1,155.1 276,155.1 Z M312.5,317.9 L289.5,354.4 C288.8,355.4 287.8,355.4 287.1,354.4 L264.1,317.9 C263.5,316.9 263.1,315 263.4,313.8 L280.7,231.9 C281,230.7 280.7,228.9 280,227.8 L266,203.3 C265.4,202.2 265.9,201.4 267.1,201.4 L309.6,201.4 C310.8,201.4 311.3,202.3 310.7,203.3 L296.6,227.7 C296,228.8 295.7,230.6 295.9,231.8 L313.1,313.8 C313.5,315 313.2,316.8 312.5,317.9 L312.5,317.9 Z" id="Shape" fill="#81AF32" fill-rule="nonzero"></path>
            <path d="M309.9,152.3 C310.2,152.2 310.6,152.1 310.6,151.7 C310.6,151.3 310.5,150.8 309.6,150.6 C306.3,150.6 303.7,153.3 303.7,156.5 C303.7,158.2 304.4,159.7 305.6,160.8 C305.3,160.1 305.2,159.4 305.2,158.6 C305.2,155.9 306.6,153.1 309.9,152.3 Z" id="Shape" fill="#81AF32" fill-rule="nonzero"></path>
            <circle id="Oval" fill="#81AF32" cx="469.5" cy="45.5" r="45.5"></circle>
            <circle id="Oval" fill="#81AF32" cx="166" cy="401" r="24"></circle>
            <circle id="Oval" fill="#81AF32" cx="388.5" cy="289.5" r="14.5"></circle>
            <circle id="Oval" fill="#81AF32" cx="213.5" cy="72.5" r="10.5"></circle>
            <circle id="Oval" fill="#81AF32" cx="389" cy="484" r="34"></circle>
            <circle id="Oval" fill="#81AF32" cx="46" cy="200" r="46"></circle>
            <path d="M45.5,202.5 L267.5,239.5" id="Line" stroke="#81AF32" stroke-width="15" stroke-linecap="square"></path>
            <path d="M470.5,45.5 L307.5,231.5" id="Line" stroke="#81AF32" stroke-width="13" stroke-linecap="square"></path>
            <path d="M319.5,341.5 L388.5,483.5" id="Line" stroke="#81AF32" stroke-width="10" stroke-linecap="square"></path>
        </g>
    </g>
</svg>